<svg xmlns="http://www.w3.org/2000/svg" version="1.0" width="560.000000pt" height="560.000000pt" viewBox="0 0 560.000000 560.000000" preserveAspectRatio="xMidYMid meet">

<g transform="translate(0.000000,560.000000) scale(0.100000,-0.100000)" fill="#000000" stroke="none">
<path d="M2675 5500 c-732 -76 -1384 -489 -1773 -1126 -97 -159 -207 -402 -190 -420 7 -7 1408 -5 1419 2 5 3 9 33 9 66 0 243 192 531 427 644 95 45 167 63 278 71 361 23 665 -197 784 -570 7 -20 15 -78 18 -127 l6 -90 693 0 c382 0 694 3 694 6 0 3 -16 44 -36 92 -206 499 -633 967 -1089 1194 -55 28 -116 58 -135 68 -123 64 -417 150 -610 180 -95 15 -391 20 -495 10z"/>
<path d="M2845 4450 c-11 -5 -35 -9 -53 -9 -18 -1 -40 -5 -50 -10 -9 -5 -42 -21 -72 -35 -97 -45 -230 -207 -230 -281 0 -13 -4 -27 -10 -30 -6 -4 -10 -57 -10 -125 0 -68 4 -121 10 -125 6 -3 10 -14 10 -25 0 -35 61 -135 117 -192 137 -138 340 -180 524 -108 274 108 388 443 241 709 -58 104 -186 199 -307 226 -51 12 -149 15 -170 5z"/>
<path d="M630 3721 c-22 -41 -60 -269 -75 -453 l-7 -78 405 0 405 0 7 58 c10 80 47 181 91 249 50 76 150 175 216 213 l53 30 -542 0 c-526 0 -543 -1 -553 -19z"/>
<path d="M3617 3722 c-10 -10 -17 -26 -17 -35 0 -10 -4 -25 -8 -35 -18 -35 -35 -68 -49 -88 -13 -20 -10 -24 39 -55 122 -78 204 -163 269 -276 l24 -43 658 0 657 0 0 38 c0 88 -41 360 -71 475 l-10 37 -738 0 c-702 0 -739 -1 -754 -18z"/>
<path d="M1827 3467 c-108 -60 -139 -97 -196 -240 -32 -80 6 -224 82 -313 20 -22 64 -56 99 -75 59 -32 69 -34 158 -34 82 0 103 4 152 27 152 71 237 224 210 378 -21 116 -83 208 -168 249 -27 13 -57 27 -66 32 -10 5 -62 9 -115 8 -90 -1 -102 -3 -156 -32z"/>
<path d="M3215 3290 c-27 -16 -58 -29 -68 -29 -9 -1 -25 -5 -35 -10 -57 -29 -342 -46 -357 -21 -3 6 -17 10 -31 10 -13 0 -32 4 -42 9 -90 46 -106 51 -116 41 -7 -7 -6 -14 2 -22 17 -17 16 -251 -1 -300 -7 -21 -16 -41 -20 -44 -4 -4 -7 -15 -7 -24 0 -8 -13 -31 -30 -50 -16 -19 -29 -44 -30 -55 0 -12 25 -45 61 -80 86 -85 175 -223 218 -337 10 -28 11 -28 106 -28 92 0 202 -24 229 -51 6 -5 12 -9 15 -9 4 0 6 62 6 138 1 124 3 144 28 212 38 105 81 172 159 251 75 76 188 139 285 160 32 7 59 13 61 15 17 12 -101 148 -155 178 -150 83 -198 91 -278 46z"/>
<path d="M3589 2778 c-124 -64 -203 -192 -201 -323 0 -49 14 -125 23 -131 5 -3 9 -14 9 -24 0 -28 104 -135 154 -159 185 -90 426 0 496 186 55 147 30 270 -79 386 -34 36 -111 85 -111 71 0 -4 -6 -1 -14 5 -9 8 -56 13 -119 14 -97 2 -109 0 -158 -25z"/>
<path d="M1599 2587 c-15 -11 -17 -49 -18 -332 0 -176 4 -486 9 -690 11 -436 28 -657 71 -910 6 -33 12 -87 15 -120 3 -33 10 -64 15 -69 5 -6 9 -31 9 -57 0 -26 5 -51 10 -54 6 -3 10 -24 10 -45 0 -21 5 -42 10 -45 6 -3 10 -19 10 -35 0 -16 5 -32 10 -35 6 -3 10 -19 10 -36 0 -16 5 -29 10 -29 6 0 10 -7 10 -16 0 -45 78 -61 104 -21 15 23 45 377 66 767 15 288 24 408 28 378 2 -16 7 -28 12 -28 4 0 11 -84 14 -187 8 -249 39 -743 54 -848 14 -94 20 -105 56 -105 17 0 36 4 43 8 46 29 121 389 163 784 20 186 42 751 32 845 -2 23 1 50 7 60 8 14 10 15 11 3 0 -9 11 -32 25 -52 14 -20 25 -44 25 -52 0 -15 73 -160 129 -256 62 -106 59 -89 70 -506 6 -214 15 -423 21 -464 6 -41 13 -97 16 -125 3 -27 10 -54 15 -59 5 -6 9 -27 9 -47 0 -21 5 -41 10 -44 6 -3 10 -18 10 -33 1 -59 64 -86 94 -39 13 19 40 227 62 475 7 83 19 100 28 39 10 -68 26 -195 36 -297 19 -180 21 -195 32 -218 9 -18 19 -22 42 -20 44 4 60 44 90 228 39 238 46 337 46 669 0 276 2 310 18 342 46 90 298 372 410 458 l42 33 0 -25 c0 -14 -10 -45 -21 -69 -32 -63 -48 -112 -64 -193 -3 -16 -11 -50 -16 -75 -25 -108 -32 -222 -32 -480 1 -277 6 -378 23 -415 5 -11 11 -38 14 -60 10 -79 18 -115 27 -121 5 -3 9 -16 9 -29 0 -13 5 -27 10 -30 6 -3 10 -17 10 -30 0 -13 5 -27 10 -30 6 -3 10 -17 10 -31 0 -13 5 -24 10 -24 6 0 10 -9 10 -20 0 -11 4 -28 9 -38 5 -9 13 -28 19 -42 l10 -25 6 25 c3 14 19 148 35 299 20 189 34 277 43 282 7 5 24 9 38 9 38 0 235 47 323 76 l77 26 0 61 c-1 197 -47 574 -90 722 -49 171 -149 314 -254 363 -49 23 -169 31 -181 12 -3 -5 -17 -10 -30 -10 -22 0 -42 -9 -115 -52 -48 -27 -142 -111 -270 -239 -58 -58 -132 -114 -173 -132 -77 -33 -91 -37 -152 -37 -91 0 -162 18 -220 55 -100 64 -215 215 -283 371 -28 64 -30 80 -35 222 -2 83 -1 152 3 152 11 0 107 -108 199 -224 28 -36 31 -37 31 -15 0 13 -9 65 -19 115 -21 103 -71 217 -131 301 -45 63 -122 132 -149 134 -9 0 -73 0 -142 -1 -81 -1 -129 3 -134 9 -8 14 -112 14 -120 1 -3 -6 -50 -10 -105 -10 -55 0 -102 4 -105 10 -9 14 -67 12 -86 -3z"/>
<path d="M2789 2092 c-39 -20 -96 -74 -116 -110 -8 -12 -13 -55 -13 -99 0 -87 18 -128 76 -177 42 -35 76 -46 137 -46 147 0 256 131 226 271 -13 61 -61 126 -114 153 -55 28 -149 32 -196 8z"/>
</g>
</svg>